<svg width="108" height="118" viewBox="0 0 108 118" fill="none" xmlns="http://www.w3.org/2000/svg">
<path d="M10.24 0.119995V10.36H0V117.88H28.16V94.84H38.4V117.88H66.56V10.36H56.32V0.119995H10.24ZM15.36 20.6H20.48V25.72H15.36V20.6ZM25.6 20.6H30.72V25.72H25.6V20.6ZM35.84 20.6H40.96V25.72H35.84V20.6ZM46.08 20.6H51.2V25.72H46.08V20.6ZM71.68 30.84V41.08H76.8V46.2H71.68V51.32H76.8V56.44H71.68V61.56H76.8V66.68H71.68V71.8H76.8V76.92H71.68V82.04H76.8V87.16H71.68V92.28H76.8V97.4H71.68V102.52H76.8V107.64H71.68V117.88H107.52V30.84H71.68ZM15.36 33.4H20.48V43.64H15.36V33.4ZM25.6 33.4H30.72V43.64H25.6V33.4ZM35.84 33.4H40.96V43.64H35.84V33.4ZM46.08 33.4H51.2V43.64H46.08V33.4ZM81.92 41.08H87.04V46.2H81.92V41.08ZM92.16 41.08H97.28V46.2H92.16V41.08ZM15.36 48.76H20.48V59H15.36V48.76ZM25.6 48.76H30.72V59H25.6V48.76ZM35.84 48.76H40.96V59H35.84V48.76ZM46.08 48.76H51.2V59H46.08V48.76ZM81.92 51.32H87.04V56.44H81.92V51.32ZM92.16 51.32H97.28V56.44H92.16V51.32ZM81.92 61.56H87.04V66.68H81.92V61.56ZM92.16 61.56H97.28V66.68H92.16V61.56ZM15.36 64.12H20.48V74.36H15.36V64.12ZM25.6 64.12H30.72V74.36H25.6V64.12ZM35.84 64.12H40.96V74.36H35.84V64.12ZM46.08 64.12H51.2V74.36H46.08V64.12ZM81.92 71.8H87.04V76.92H81.92V71.8ZM92.16 71.8H97.28V76.92H92.16V71.8ZM15.36 79.48H20.48V89.72H15.36V79.48ZM25.6 79.48H30.72V89.72H25.6V79.48ZM35.84 79.48H40.96V89.72H35.84V79.48ZM46.08 79.48H51.2V89.72H46.08V79.48ZM81.92 82.04H87.04V87.16H81.92V82.04ZM92.16 82.04H97.28V87.16H92.16V82.04ZM81.92 92.28H87.04V97.4H81.92V92.28ZM92.16 92.28H97.28V97.4H92.16V92.28ZM15.36 94.84H20.48V107.64H15.36V94.84ZM46.08 94.84H51.2V107.64H46.08V94.84ZM81.92 102.52H87.04V107.64H81.92V102.52ZM92.16 102.52H97.28V107.64H92.16V102.52Z" fill="white"/>
</svg>
