<svg width="119" height="125" viewBox="0 0 119 125" fill="none" xmlns="http://www.w3.org/2000/svg">
<path d="M50.3233 108.59C48.895 107.624 47.1563 107.054 45.3071 107.057C44.0759 107.057 42.8882 107.307 41.8125 107.763C40.2 108.445 38.836 109.579 37.8682 111.011C36.9002 112.439 36.3342 114.178 36.3364 116.027C36.3342 117.259 36.5852 118.446 37.041 119.52C37.7251 121.135 38.8567 122.499 40.2869 123.464C41.7171 124.435 43.4583 125 45.3071 125C46.5383 125 47.7236 124.75 48.7976 124.294C50.4121 123.612 51.7781 122.476 52.7442 121.046C53.71 119.617 54.2778 117.876 54.2778 116.028C54.2778 114.797 54.0249 113.611 53.5711 112.535C52.8889 110.92 51.7534 109.556 50.3233 108.59ZM48.6402 117.435C48.3667 118.081 47.9043 118.639 47.3259 119.029C46.7456 119.418 46.0659 119.644 45.3074 119.646C44.7996 119.644 44.3289 119.545 43.8999 119.36C43.2554 119.091 42.6956 118.626 42.3059 118.05C41.9163 117.468 41.6924 116.786 41.6882 116.027C41.6904 115.521 41.7918 115.053 41.9744 114.62C42.2437 113.975 42.7083 113.418 43.2864 113.026C43.867 112.636 44.5488 112.412 45.3074 112.41C45.8132 112.41 46.2815 112.512 46.7127 112.694C47.3594 112.966 47.9148 113.428 48.3067 114.009C48.6963 114.589 48.9221 115.269 48.9221 116.027C48.9219 116.535 48.8225 117.003 48.6402 117.435Z" fill="white"/>
<path d="M99.5252 108.59C98.095 107.624 96.356 107.054 94.5071 107.057C93.2761 107.057 92.0884 107.307 91.0144 107.763C89.4021 108.445 88.0359 109.579 87.0681 111.011C86.1023 112.439 85.5342 114.178 85.5364 116.027C85.5342 117.259 85.7871 118.446 86.2432 119.52C86.9251 121.135 88.0591 122.499 89.489 123.467C90.917 124.435 92.658 125 94.5071 125C95.7383 125 96.926 124.75 97.9995 124.294C99.6123 123.612 100.978 122.476 101.946 121.046C102.912 119.617 103.48 117.876 103.478 116.028C103.48 114.797 103.227 113.611 102.771 112.535C102.089 110.92 100.955 109.556 99.5252 108.59ZM97.8401 117.435C97.5686 118.081 97.1045 118.639 96.5281 119.029C95.9475 119.418 95.2659 119.644 94.5071 119.646C93.9993 119.644 93.531 119.545 93.0999 119.36C92.4531 119.091 91.8975 118.626 91.5081 118.05C91.1162 117.468 90.8902 116.786 90.8902 116.027C90.8902 115.521 90.9917 115.053 91.1719 114.62C91.4458 113.975 91.9077 113.418 92.4861 113.026C93.0664 112.636 93.7483 112.412 94.5069 112.41C95.0147 112.41 95.4832 112.512 95.9143 112.694C96.5589 112.966 97.1165 113.428 97.5061 114.009C97.8958 114.589 98.1238 115.269 98.1238 116.027C98.124 116.535 98.0227 117.003 97.8401 117.435Z" fill="white"/>
<path d="M117.023 23.3726C115.79 21.8638 113.941 20.9868 111.989 20.9868H27.1917L24.3023 11.0608V11.0628C22.9759 6.62526 19.336 3.2632 14.8091 2.29323L4.44168 0.0732577C2.68802 -0.30394 0.95926 0.815201 0.582062 2.57082C0.206818 4.32619 1.32425 6.05495 3.08182 6.42995L13.4456 8.65212C15.6529 9.12453 17.427 10.762 18.0716 12.926L37.0164 78.001C36.5896 78.2 36.177 78.4155 35.781 78.6538C33.7373 79.8706 32.0999 81.5786 31.0013 83.5725C29.9505 85.4671 29.3929 87.6143 29.3411 89.8301H29.3306V90.1677H29.3389C29.3804 91.8987 29.7495 93.5589 30.3899 95.074C31.4158 97.4971 33.1197 99.5469 35.2669 100.998C37.4143 102.451 40.0218 103.303 42.7991 103.301H103.729C105.526 103.301 106.983 101.845 106.983 100.051C106.983 98.2556 105.526 96.8006 103.729 96.8006L42.7991 96.7986C41.8291 96.7986 40.9214 96.6038 40.0882 96.2534C38.8445 95.7271 37.7708 94.8399 37.0205 93.7246C36.2991 92.6528 35.8723 91.3906 35.8389 90.0064C35.8763 88.3543 36.4029 86.9199 37.3272 85.7737C37.8059 85.1829 38.3965 84.6648 39.1138 84.2356C39.8228 83.8128 40.658 83.4771 41.6385 83.2656L102.879 73.2979C106.881 72.645 110.063 69.5857 110.871 65.6121L118.362 28.7861V28.7822C118.449 28.3552 118.491 27.9199 118.491 27.4888C118.491 26.0007 117.981 24.5459 117.023 23.3726ZM54.7796 69.4697C52.9556 70.0044 51.0445 68.9556 50.5096 67.1316L41.593 36.6006C41.0623 34.7766 42.1072 32.8655 43.9329 32.3328C45.7591 31.8001 47.6702 32.8469 48.2027 34.6731L57.1175 65.2C57.6524 67.0259 56.6033 68.9392 54.7796 69.4697ZM69.189 67.2002C67.3653 67.7329 65.4541 66.6863 64.9192 64.8601L56.649 36.5427C56.1162 34.7188 57.1631 32.8076 58.9893 32.273C60.8152 31.7422 62.7263 32.7891 63.2569 34.615L71.5269 62.9304C72.0618 64.7564 71.013 66.6675 69.189 67.2002ZM83.6194 64.9971C81.7952 65.5296 79.8843 64.4829 79.3494 62.6568L71.7073 36.4866C71.1746 34.6629 72.2215 32.7495 74.0474 32.219C75.8716 31.6843 77.7825 32.731 78.315 34.5571L85.9571 60.7271C86.4922 62.551 85.4431 64.4641 83.6194 64.9971ZM98.0039 62.6463C96.18 63.179 94.2688 62.1323 93.7364 60.3062L86.7615 36.4263C86.2288 34.6023 87.2757 32.6914 89.1016 32.1565C90.9275 31.6257 92.8387 32.6707 93.3692 34.4964L100.346 58.3762C100.877 60.2026 99.8299 62.1116 98.0039 62.6463Z" fill="white"/>
</svg>
