<svg width="132" height="135" viewBox="0 0 132 135" fill="none" xmlns="http://www.w3.org/2000/svg">
<path d="M98.9232 41.2888H32.2419C30.1089 41.2888 28.3691 43.0135 28.3691 45.1506V58.2982C28.3691 60.4352 30.1089 62.1599 32.2419 62.1599H98.9232C101.052 62.1599 102.79 60.4352 102.79 58.2982V45.1506C102.79 43.0135 101.049 41.2888 98.9232 41.2888ZM35.343 50.4462C34.0253 50.4462 32.9574 49.3811 32.9574 48.062C32.9574 46.7469 34.0253 45.6791 35.343 45.6791C36.6635 45.6791 37.7273 46.7469 37.7273 48.062C37.7273 49.3825 36.6635 50.4462 35.343 50.4462ZM92.6198 57.3204H75.7743V51.7257H92.6212L92.6198 57.3204Z" fill="white"/>
<path d="M98.9232 64.2834H32.2419C30.1089 64.2834 28.3691 66.0109 28.3691 68.148V81.2941C28.3691 83.4285 30.1089 85.1573 32.2419 85.1573H98.9232C101.052 85.1573 102.79 83.4285 102.79 81.2941V68.148C102.79 66.0109 101.049 64.2834 98.9232 64.2834ZM35.343 73.4436C34.0253 73.4436 32.9574 72.3825 32.9574 71.0593C32.9574 69.7457 34.0253 68.6723 35.343 68.6723C36.6635 68.6723 37.7273 69.7443 37.7273 71.0593C37.7273 72.3812 36.6635 73.4436 35.343 73.4436ZM92.6198 80.3164H75.7743V74.7204H92.6212L92.6198 80.3164Z" fill="white"/>
<path d="M98.9232 87.2793H32.2419C30.1089 87.2793 28.3691 89.0067 28.3691 91.1425V104.289C28.3691 106.424 30.1089 108.153 32.2419 108.153H98.9232C101.052 108.153 102.79 106.424 102.79 104.289V91.1425C102.79 89.0067 101.049 87.2793 98.9232 87.2793ZM35.343 96.4367C34.0253 96.4367 32.9574 95.3784 32.9574 94.0524C32.9574 92.736 34.0253 91.6709 35.343 91.6709C36.6635 91.6709 37.7273 92.7347 37.7273 94.0524C37.7273 95.3784 36.6635 96.4367 35.343 96.4367ZM92.6198 103.31H75.7743V97.7135H92.6212L92.6198 103.31Z" fill="white"/>
<path d="M77.0979 120.727H69.9915V110.389H61.1755V120.727H54.061V123.452H29.186V132.272H54.061V135H77.0979V132.272H101.971V123.452H77.0979V120.727Z" fill="white"/>
<path d="M104.94 20.0818C103.986 20.0013 103.109 19.5138 102.541 18.745C97.1947 11.5253 88.6231 7.0722 79.5012 7.0722C78.9304 7.0722 78.3582 7.08995 77.786 7.12409C76.994 7.17189 76.2157 6.93565 75.5834 6.4577C70.0297 2.26955 63.3003 0 56.2567 0C43.6363 0 32.4346 7.31117 27.1991 18.3817C26.7184 19.3963 25.7598 20.1009 24.6482 20.2566C10.7387 22.2135 0 34.1921 0 48.6315C0 62.3976 9.75961 73.9202 22.7242 76.6608V68.1479C22.7242 67.0869 22.9208 66.075 23.2472 65.1233C16.3143 62.8441 11.289 56.3182 11.289 48.6328C11.289 39.0589 19.0782 31.2698 28.6534 31.2698C29.1368 31.2698 29.612 31.308 30.0859 31.3463C32.8457 31.5607 35.3419 29.7704 36.0151 27.0939C38.3488 17.7891 46.6746 11.2904 56.2554 11.2904C61.7312 11.2904 66.9135 13.4043 70.8463 17.2442C72.19 18.5551 74.1004 19.1137 75.9385 18.7299C77.1115 18.4855 78.3091 18.3612 79.5012 18.3612C86.2047 18.3612 92.1913 22.1302 95.1231 28.196C96.1541 30.3289 98.4073 31.5989 100.766 31.3558C101.353 31.2971 101.939 31.2684 102.507 31.2684C112.082 31.2684 119.872 39.0576 119.872 48.6315C119.872 56.3182 114.844 62.8428 107.913 65.1219C108.238 66.075 108.435 67.0855 108.435 68.1466V76.6581C121.398 73.9188 131.163 62.3976 131.163 48.6301C131.161 33.6513 119.603 21.319 104.94 20.0818Z" fill="white"/>
</svg>
