<svg width="140" height="120" viewBox="0 0 140 120" fill="none" xmlns="http://www.w3.org/2000/svg">
<path d="M17.9386 72.6167H3.17632C1.42178 72.6167 0 74.0385 0 75.793V81.9339V108.887V115.028C0 116.783 1.42178 118.204 3.17632 118.204H17.9386C19.6932 118.204 21.115 116.783 21.115 115.028V108.887V81.9339V75.793C21.115 74.0385 19.6932 72.6167 17.9386 72.6167Z" fill="white"/>
<path d="M47.7658 54.9806H33.0035C31.2489 54.9806 29.8271 56.4024 29.8271 58.1569V81.9339V91.2511V115.028C29.8271 116.783 31.2489 118.204 33.0035 118.204H47.7658C49.5203 118.204 50.9421 116.783 50.9421 115.028V91.2511V81.9339V58.1569C50.9421 56.4024 49.5203 54.9806 47.7658 54.9806Z" fill="white"/>
<path d="M80.7692 64.3885V38.1309H90.9636C92.8392 38.1309 93.9887 36.0739 92.9904 34.4706L72.2385 1.1344C71.3007 -0.378133 69.0924 -0.378133 68.1546 1.1344L47.4027 34.4706C46.4044 36.0739 47.554 38.1309 49.4295 38.1309H59.624V115.028C59.624 116.783 61.0457 118.204 62.8003 118.204H77.5626C79.3171 118.204 80.7389 116.783 80.7389 115.058C74.8098 108.282 71.21 99.4188 71.21 89.7083C71.21 80.0281 74.8098 71.1646 80.7692 64.3885Z" fill="white"/>
<path d="M109.779 59.4879C93.0811 59.4879 79.5591 73.01 79.5591 89.7083C79.5591 106.407 93.0811 119.929 109.779 119.929C126.478 119.929 140 106.407 140 89.7083C140 73.01 126.478 59.4879 109.779 59.4879ZM118.461 101.657C117.13 103.261 115.436 104.35 113.41 104.894C112.532 105.136 112.139 105.59 112.2 106.497C112.23 107.375 112.2 108.282 112.2 109.19C112.2 109.976 111.806 110.4 111.02 110.43C110.052 110.46 109.084 110.46 108.146 110.43C107.299 110.4 106.906 109.946 106.906 109.129C106.906 108.464 106.906 107.828 106.875 107.163C106.875 105.711 106.815 105.65 105.423 105.439C103.639 105.166 101.914 104.743 100.281 103.956C99.0102 103.351 98.8892 103.019 99.2523 101.688C99.5245 100.689 99.7968 99.691 100.099 98.723C100.462 97.5735 100.765 97.4525 101.824 97.997C103.608 98.9348 105.514 99.449 107.511 99.691C108.811 99.8423 110.052 99.7213 111.232 99.207C113.44 98.239 113.803 95.6677 111.927 94.1249C111.292 93.6106 110.566 93.2174 109.81 92.8846C107.874 92.0376 105.817 91.3721 104.002 90.2831C101.007 88.4983 99.1312 86.048 99.343 82.4179C99.585 78.3038 101.914 75.7325 105.696 74.3712C107.238 73.7965 107.269 73.8267 107.269 72.1932C107.269 71.6487 107.269 71.1042 107.269 70.5596C107.299 69.3194 107.511 69.1379 108.721 69.0774C109.084 69.0774 109.477 69.0774 109.84 69.0774C112.442 69.0774 112.442 69.0774 112.442 71.6789C112.442 73.5242 112.442 73.5242 114.287 73.7965C115.678 74.0082 117.04 74.4317 118.31 75.0065C119.036 75.309 119.308 75.8233 119.066 76.5795C118.734 77.6988 118.431 78.8181 118.068 79.9373C117.735 80.9961 117.403 81.1474 116.374 80.6634C114.347 79.6954 112.23 79.2718 109.991 79.3928C109.416 79.4231 108.842 79.5138 108.297 79.7559C106.361 80.6029 106.059 82.7507 107.692 84.0514C108.539 84.717 109.477 85.201 110.475 85.6245C112.2 86.3202 113.924 87.016 115.527 87.9235C120.7 90.7066 122.091 97.2105 118.461 101.657Z" fill="white"/>
</svg>
