<svg width="136" height="136" viewBox="0 0 136 136" fill="none" xmlns="http://www.w3.org/2000/svg">
<path d="M95.5613 4.25H40.4388C36.1569 4.25 31.875 8.364 31.8771 12.4759L31.875 123.524C31.875 127.636 36.1569 131.75 40.4388 131.75H95.5613C99.8453 131.75 104.125 127.636 104.125 123.524V12.4759C104.125 8.364 99.8431 4.25 95.5613 4.25ZM91.0775 11.2221C92.1846 11.2221 93.0856 12.1125 93.0856 13.2154C93.0856 14.314 92.1846 15.2086 91.0775 15.2086C89.9704 15.2086 89.0736 14.314 89.0736 13.2154C89.0742 12.9529 89.1265 12.6931 89.2275 12.4508C89.3285 12.2085 89.4763 11.9885 89.6624 11.8034C89.8485 11.6183 90.0693 11.4717 90.3121 11.3719C90.5549 11.2722 90.815 11.2213 91.0775 11.2221ZM62.5791 12.2889H73.4209C73.7545 12.2889 74.0201 12.7309 74.0201 13.2812C74.0201 13.8337 73.7545 14.2821 73.4209 14.2821H62.5791C62.2497 14.2821 61.9799 13.8337 61.9799 13.2812C61.9799 12.733 62.2497 12.2889 62.5791 12.2889ZM75.5267 124.279C75.5262 124.476 75.4868 124.671 75.4107 124.852C75.3346 125.034 75.2234 125.199 75.0835 125.338C74.9435 125.477 74.7775 125.587 74.5951 125.661C74.4126 125.736 74.2172 125.773 74.0201 125.772H61.9799C61.7828 125.773 61.5874 125.736 61.4049 125.661C61.2225 125.587 61.0565 125.477 60.9165 125.338C60.7766 125.199 60.6654 125.034 60.5893 124.852C60.5132 124.671 60.4738 124.476 60.4733 124.279V121.291C60.4733 120.464 61.1469 119.797 61.9799 119.797H74.0201C74.8531 119.797 75.5267 120.464 75.5267 121.291V124.279ZM98.1049 115.812H37.8951V20.1875H98.1028L98.1049 115.812Z" fill="white"/>
<path d="M43.76 35.1283H50.4007C50.6187 35.1289 50.8347 35.0864 51.0363 35.0034C51.2379 34.9203 51.4211 34.7983 51.5754 34.6444C51.7298 34.4904 51.8523 34.3075 51.9358 34.1061C52.0194 33.9047 52.0624 33.6889 52.0624 33.4708V26.8302C52.0624 26.3895 51.8873 25.9668 51.5757 25.6552C51.2641 25.3435 50.8414 25.1685 50.4007 25.1685H43.76C43.542 25.1685 43.3261 25.2115 43.1248 25.295C42.9234 25.3786 42.7405 25.5011 42.5865 25.6554C42.4325 25.8098 42.3105 25.993 42.2275 26.1946C42.1444 26.3962 42.102 26.6122 42.1025 26.8302V33.4708C42.1025 34.3867 42.8442 35.1283 43.76 35.1283Z" fill="white"/>
<path d="M57.7044 35.1283H64.345C64.563 35.1289 64.779 35.0864 64.9806 35.0034C65.1822 34.9203 65.3654 34.7983 65.5198 34.6444C65.6741 34.4904 65.7966 34.3075 65.8802 34.1061C65.9637 33.9047 66.0068 33.6889 66.0068 33.4708V26.8302C66.0068 26.3895 65.8317 25.9668 65.52 25.6552C65.2084 25.3435 64.7857 25.1685 64.345 25.1685H57.7044C57.4864 25.1685 57.2705 25.2115 57.0691 25.295C56.8677 25.3786 56.6848 25.5011 56.5308 25.6554C56.3769 25.8098 56.2549 25.993 56.1718 26.1946C56.0888 26.3962 56.0463 26.6122 56.0469 26.8302V33.4708C56.0469 34.3867 56.7906 35.1283 57.7044 35.1283Z" fill="white"/>
<path d="M71.6507 35.1283H78.2913C78.5093 35.1289 78.7253 35.0864 78.9269 35.0034C79.1285 34.9203 79.3117 34.7983 79.4661 34.6444C79.6204 34.4904 79.7429 34.3075 79.8265 34.1061C79.91 33.9047 79.953 33.6889 79.953 33.4708V26.8302C79.953 26.3895 79.778 25.9668 79.4663 25.6552C79.1547 25.3435 78.732 25.1685 78.2913 25.1685H71.6507C71.4326 25.1685 71.2168 25.2115 71.0154 25.295C70.814 25.3786 70.6311 25.5011 70.4771 25.6554C70.3232 25.8098 70.2012 25.993 70.1181 26.1946C70.0351 26.3962 69.9926 26.6122 69.9932 26.8302V33.4708C69.9932 34.3867 70.7348 35.1283 71.6507 35.1283Z" fill="white"/>
<path d="M85.595 35.1283H92.2356C92.4537 35.1289 92.6696 35.0864 92.8712 35.0034C93.0728 34.9203 93.256 34.7983 93.4104 34.6444C93.5648 34.4904 93.6872 34.3075 93.7708 34.1061C93.8544 33.9047 93.8974 33.6889 93.8974 33.4708V26.8302C93.8974 26.3895 93.7223 25.9668 93.4107 25.6552C93.099 25.3435 92.6764 25.1685 92.2356 25.1685H85.595C85.377 25.1685 85.1611 25.2115 84.9597 25.295C84.7584 25.3786 84.5754 25.5011 84.4215 25.6554C84.2675 25.8098 84.1455 25.993 84.0625 26.1946C83.9794 26.3962 83.9369 26.6122 83.9375 26.8302V33.4708C83.9375 34.3867 84.6813 35.1283 85.595 35.1283Z" fill="white"/>
<path d="M43.76 111.828H50.4007C50.6187 111.829 50.8347 111.786 51.0363 111.703C51.2379 111.62 51.4211 111.498 51.5754 111.344C51.7298 111.19 51.8523 111.007 51.9358 110.806C52.0194 110.605 52.0624 110.389 52.0624 110.171V103.528C52.0624 103.31 52.0194 103.094 51.9359 102.892C51.8523 102.691 51.7299 102.508 51.5756 102.354C51.4212 102.199 51.238 102.077 51.0364 101.994C50.8348 101.911 50.6188 101.868 50.4007 101.868H43.76C43.5422 101.868 43.3265 101.911 43.1253 101.995C42.924 102.078 42.7412 102.2 42.5873 102.355C42.4333 102.509 42.3113 102.692 42.2281 102.893C42.1449 103.094 42.1023 103.31 42.1025 103.528V110.171C42.1025 111.084 42.8442 111.828 43.76 111.828Z" fill="white"/>
<path d="M57.7044 111.828H64.345C64.563 111.829 64.779 111.786 64.9806 111.703C65.1822 111.62 65.3654 111.498 65.5198 111.344C65.6741 111.19 65.7966 111.007 65.8802 110.806C65.9637 110.605 66.0068 110.389 66.0068 110.171V103.528C66.0068 103.31 65.9638 103.094 65.8802 102.892C65.7967 102.691 65.6742 102.508 65.5199 102.354C65.3656 102.199 65.1824 102.077 64.9808 101.994C64.7792 101.911 64.5631 101.868 64.345 101.868H57.7044C57.4865 101.868 57.2708 101.911 57.0696 101.995C56.8684 102.078 56.6855 102.2 56.5316 102.355C56.3777 102.509 56.2556 102.692 56.1724 102.893C56.0893 103.094 56.0466 103.31 56.0469 103.528V110.171C56.0469 111.084 56.7906 111.828 57.7044 111.828Z" fill="white"/>
<path d="M71.6507 111.828H78.2913C78.5093 111.829 78.7253 111.786 78.9269 111.703C79.1285 111.62 79.3117 111.498 79.4661 111.344C79.6204 111.19 79.7429 111.007 79.8265 110.806C79.91 110.605 79.953 110.389 79.953 110.171V103.528C79.953 103.31 79.91 103.094 79.8265 102.892C79.743 102.691 79.6205 102.508 79.4662 102.354C79.3119 102.199 79.1287 102.077 78.9271 101.994C78.7255 101.911 78.5094 101.868 78.2913 101.868H71.6507C71.4328 101.868 71.2171 101.911 71.0159 101.995C70.8146 102.078 70.6318 102.2 70.4779 102.355C70.3239 102.509 70.2019 102.692 70.1187 102.893C70.0356 103.094 69.9929 103.31 69.9932 103.528V110.171C69.9932 111.084 70.7348 111.828 71.6507 111.828Z" fill="white"/>
<path d="M85.595 111.828H92.2356C92.4536 111.829 92.6696 111.786 92.8712 111.703C93.0728 111.62 93.256 111.498 93.4104 111.344C93.5648 111.19 93.6872 111.007 93.7708 110.806C93.8544 110.605 93.8974 110.389 93.8974 110.171V103.528C93.8974 103.31 93.8544 103.094 93.7708 102.892C93.6873 102.691 93.5649 102.508 93.4105 102.354C93.2562 102.199 93.073 102.077 92.8714 101.994C92.6698 101.911 92.4537 101.868 92.2356 101.868H85.595C85.3772 101.868 85.1615 101.911 84.9602 101.995C84.759 102.078 84.5762 102.2 84.4222 102.355C84.2683 102.509 84.1462 102.692 84.0631 102.893C83.9799 103.094 83.9372 103.31 83.9375 103.528V110.171C83.9375 111.084 84.6812 111.828 85.595 111.828Z" fill="white"/>
<path d="M43.76 73.4783H50.4007C50.6187 73.4789 50.8347 73.4364 51.0363 73.3534C51.2379 73.2703 51.4211 73.1483 51.5754 72.9943C51.7298 72.8404 51.8523 72.6575 51.9358 72.4561C52.0194 72.2547 52.0624 72.0388 52.0624 71.8208V65.1781C52.0624 64.9599 52.0194 64.7439 51.9359 64.5425C51.8523 64.341 51.7299 64.1579 51.5756 64.0038C51.4212 63.8496 51.238 63.7274 51.0364 63.6442C50.8348 63.5609 50.6188 63.5182 50.4007 63.5184H43.76C43.5422 63.5184 43.3265 63.5614 43.1253 63.6448C42.924 63.7282 42.7412 63.8505 42.5873 64.0047C42.4333 64.1588 42.3113 64.3418 42.2281 64.5431C42.1449 64.7444 42.1023 64.9602 42.1025 65.1781V71.8208C42.1025 72.7367 42.8442 73.4783 43.76 73.4783Z" fill="white"/>
<path d="M57.7044 73.4783H64.345C64.563 73.4789 64.779 73.4364 64.9806 73.3534C65.1822 73.2703 65.3654 73.1483 65.5198 72.9943C65.6741 72.8404 65.7966 72.6575 65.8802 72.4561C65.9637 72.2547 66.0068 72.0388 66.0068 71.8208V65.1781C66.0068 64.9599 65.9638 64.7439 65.8802 64.5425C65.7967 64.341 65.6742 64.1579 65.5199 64.0038C65.3656 63.8496 65.1824 63.7274 64.9808 63.6442C64.7792 63.5609 64.5631 63.5182 64.345 63.5184H57.7044C57.4865 63.5184 57.2708 63.5614 57.0696 63.6448C56.8684 63.7282 56.6855 63.8505 56.5316 64.0047C56.3777 64.1588 56.2556 64.3418 56.1724 64.5431C56.0893 64.7444 56.0466 64.9602 56.0469 65.1781V71.8208C56.0469 72.7367 56.7906 73.4783 57.7044 73.4783Z" fill="white"/>
<path d="M71.6507 73.4783H78.2913C78.5093 73.4789 78.7253 73.4364 78.9269 73.3534C79.1285 73.2703 79.3117 73.1483 79.4661 72.9943C79.6204 72.8404 79.7429 72.6575 79.8265 72.4561C79.91 72.2547 79.953 72.0388 79.953 71.8208V65.1781C79.953 64.9599 79.91 64.7439 79.8265 64.5425C79.743 64.341 79.6205 64.1579 79.4662 64.0038C79.3119 63.8496 79.1287 63.7274 78.9271 63.6442C78.7255 63.5609 78.5094 63.5182 78.2913 63.5184H71.6507C71.4328 63.5184 71.2171 63.5614 71.0159 63.6448C70.8146 63.7282 70.6318 63.8505 70.4779 64.0047C70.3239 64.1588 70.2019 64.3418 70.1187 64.5431C70.0356 64.7444 69.9929 64.9602 69.9932 65.1781V71.8208C69.9932 72.7367 70.7348 73.4783 71.6507 73.4783Z" fill="white"/>
<path d="M43.76 60.6963H50.4007C51.3208 60.6963 52.0624 59.9526 52.0624 59.0367V52.3982C52.0624 51.9575 51.8873 51.5348 51.5757 51.2232C51.2641 50.9115 50.8414 50.7365 50.4007 50.7365H43.76C43.542 50.7364 43.3261 50.7795 43.1248 50.863C42.9234 50.9466 42.7405 51.0691 42.5865 51.2234C42.4325 51.3778 42.3105 51.561 42.2275 51.7626C42.1444 51.9642 42.102 52.1802 42.1025 52.3982V59.0367C42.1023 59.2545 42.1449 59.4703 42.2281 59.6717C42.3113 59.873 42.4333 60.056 42.5873 60.2101C42.7412 60.3642 42.924 60.4865 43.1253 60.57C43.3265 60.6534 43.5422 60.6963 43.76 60.6963Z" fill="white"/>
<path d="M57.7044 60.6963H64.345C65.2651 60.6963 66.0068 59.9526 66.0068 59.0367V52.3982C66.0068 51.9575 65.8317 51.5348 65.52 51.2232C65.2084 50.9115 64.7857 50.7365 64.345 50.7365H57.7044C57.4864 50.7364 57.2705 50.7795 57.0691 50.863C56.8677 50.9466 56.6848 51.0691 56.5308 51.2234C56.3769 51.3778 56.2549 51.561 56.1718 51.7626C56.0888 51.9642 56.0463 52.1802 56.0469 52.3982V59.0367C56.0469 59.9526 56.7906 60.6963 57.7044 60.6963Z" fill="white"/>
<path d="M71.6507 60.6963H78.2913C79.2114 60.6963 79.953 59.9526 79.953 59.0367V52.3982C79.953 51.9575 79.778 51.5348 79.4663 51.2232C79.1547 50.9115 78.732 50.7365 78.2913 50.7365H71.6507C71.4326 50.7364 71.2168 50.7795 71.0154 50.863C70.814 50.9466 70.6311 51.0691 70.4771 51.2234C70.3232 51.3778 70.2012 51.561 70.1181 51.7626C70.0351 51.9642 69.9926 52.1802 69.9932 52.3982V59.0367C69.9929 59.2545 70.0356 59.4703 70.1187 59.6717C70.2019 59.873 70.3239 60.056 70.4779 60.2101C70.6318 60.3642 70.8146 60.4865 71.0159 60.57C71.2171 60.6534 71.4328 60.6963 71.6507 60.6963Z" fill="white"/>
<path d="M85.595 60.6963H92.2356C93.1558 60.6963 93.8974 59.9526 93.8974 59.0367V52.3982C93.8974 51.9575 93.7223 51.5348 93.4107 51.2232C93.099 50.9115 92.6764 50.7365 92.2356 50.7365H85.595C85.377 50.7364 85.1611 50.7795 84.9597 50.863C84.7584 50.9466 84.5754 51.0691 84.4215 51.2234C84.2675 51.3778 84.1455 51.561 84.0625 51.7626C83.9794 51.9642 83.9369 52.1802 83.9375 52.3982V59.0367C83.9375 59.9526 84.6813 60.6963 85.595 60.6963Z" fill="white"/>
<path d="M43.76 47.9145H50.4007C51.3208 47.9145 52.0624 47.1707 52.0624 46.2527V39.6121C52.0624 38.6983 51.3187 37.9546 50.4007 37.9546H43.76C43.3204 37.9546 42.8989 38.1292 42.588 38.4401C42.2772 38.7509 42.1025 39.1725 42.1025 39.6121V46.2527C42.102 46.4707 42.1444 46.6867 42.2275 46.8883C42.3105 47.0899 42.4325 47.2731 42.5865 47.4275C42.7405 47.5819 42.9234 47.7043 43.1248 47.7879C43.3261 47.8715 43.542 47.9145 43.76 47.9145Z" fill="white"/>
<path d="M57.7044 47.9145H64.345C65.2651 47.9145 66.0068 47.1707 66.0068 46.2527V39.6121C66.0068 38.6983 65.263 37.9546 64.345 37.9546H57.7044C57.2648 37.9546 56.8432 38.1292 56.5323 38.4401C56.2215 38.7509 56.0469 39.1725 56.0469 39.6121V46.2527C56.0469 47.1707 56.7906 47.9145 57.7044 47.9145Z" fill="white"/>
<path d="M71.6507 47.9145H78.2913C79.2114 47.9145 79.953 47.1707 79.953 46.2527V39.6121C79.953 38.6983 79.2093 37.9546 78.2913 37.9546H71.6507C71.2111 37.9546 70.7895 38.1292 70.4786 38.4401C70.1678 38.7509 69.9932 39.1725 69.9932 39.6121V46.2527C69.9926 46.4707 70.0351 46.6867 70.1181 46.8883C70.2012 47.0899 70.3232 47.2731 70.4771 47.4275C70.6311 47.5819 70.814 47.7043 71.0154 47.7879C71.2168 47.8715 71.4326 47.9145 71.6507 47.9145Z" fill="white"/>
<path d="M85.595 47.9145H92.2356C93.1557 47.9145 93.8974 47.1707 93.8974 46.2527V39.6121C93.8974 38.6983 93.1536 37.9546 92.2356 37.9546H85.595C85.1554 37.9546 84.7338 38.1292 84.423 38.4401C84.1121 38.7509 83.9375 39.1725 83.9375 39.6121V46.2527C83.9375 47.1707 84.6812 47.9145 85.595 47.9145Z" fill="white"/>
</svg>
