<svg width="123" height="123" viewBox="0 0 123 123" fill="none" xmlns="http://www.w3.org/2000/svg">
<path d="M80.741 52.1349C81.0734 55.3939 81.264 58.548 81.264 61.5C81.264 67.0258 80.5962 73.2658 79.5745 79.5746C73.2657 80.5963 67.0257 81.2641 61.4999 81.2641C55.999 81.2641 49.761 80.598 43.4248 79.5729C42.4037 73.264 41.7358 67.0253 41.7358 61.5C41.7358 58.5492 41.9263 55.3944 42.2593 52.1349C48.9093 53.1994 55.5432 53.8984 61.4999 53.8984C67.4572 53.8984 74.091 53.1994 80.741 52.1349Z" fill="white"/>
<path d="M89.7357 50.4923C90.1469 54.3061 90.3861 58.0192 90.3861 61.5C90.3861 66.5787 89.8775 72.1503 89.0679 77.8053C100.55 75.4092 111.164 72.3483 116.849 70.6056C118.686 70.0427 119.409 69.8186 120.377 69.4311C120.861 69.2376 121.305 69.0407 121.883 68.7645C122.167 66.3824 122.313 63.958 122.313 61.5C122.313 55.0017 121.293 48.7417 119.406 42.8708L118.915 43.0255C112.969 44.8342 101.84 48.0315 89.7357 50.4923Z" fill="white"/>
<path d="M115.952 34.392C109.975 36.2032 99.6035 39.1464 88.4888 41.4378C85.9283 25.8769 81.4409 10.3567 79.2817 3.32837C95.3362 8.2298 108.571 19.5954 115.952 34.392Z" fill="white"/>
<path d="M79.5221 43.0958C73.23 44.1123 67.0098 44.7766 61.5002 44.7766C55.9906 44.7766 49.7707 44.1123 43.479 43.0958C45.89 28.372 50.1937 13.3311 52.3945 6.15095C52.9575 4.31343 53.1816 3.59167 53.5691 2.62296C53.7625 2.13901 53.9594 1.69513 54.2357 1.11689C56.6178 0.833334 59.0422 0.6875 61.5002 0.6875C64.0682 0.6875 66.5986 0.846655 69.0832 1.15564C69.1359 1.35725 69.1846 1.53766 69.2326 1.70834C69.3751 2.21262 69.5981 2.92135 69.9722 4.11061L70.0116 4.23553C71.8875 10.1987 76.8591 26.8311 79.5221 43.0958Z" fill="white"/>
<path d="M34.5111 41.4377C37.0598 25.9453 41.518 10.5088 43.6728 3.47796L43.7186 3.32831C27.6638 8.22968 14.4294 19.5952 7.04883 34.3919C13.0248 36.2031 23.3964 39.1462 34.5111 41.4377Z" fill="white"/>
<path d="M3.59399 42.8708C1.70672 48.7418 0.6875 55.0018 0.6875 61.5C0.6875 64.042 0.843469 66.5475 1.14637 69.0078L2.10478 69.3275L2.11242 69.3298L2.12181 69.3333L2.12841 69.335C2.43687 69.4375 11.4777 72.4231 23.3838 75.3856C26.7434 76.2213 30.3007 77.0472 33.932 77.8041C33.1223 72.1497 32.6141 66.5787 32.6141 61.5C32.6141 58.0181 32.8529 54.305 33.264 50.4924C21.1569 48.0307 10.0247 44.8323 4.08124 43.024L4.03989 43.0114L3.59399 42.8708Z" fill="white"/>
<path d="M61.5001 90.3859C66.5788 90.3859 72.1504 89.8774 77.8054 89.0677C75.4094 100.55 72.3485 111.164 70.6058 116.849C70.0428 118.686 69.8187 119.408 69.4312 120.377C69.2378 120.861 69.0409 121.305 68.7646 121.883C66.3825 122.167 63.9581 122.312 61.5001 122.312C59.0421 122.312 56.6178 122.167 54.2356 121.883C53.9594 121.305 53.7625 120.861 53.569 120.377C53.1816 119.409 52.9574 118.686 52.3945 116.849C50.6518 111.164 47.5912 100.551 45.1953 89.0701C50.8313 89.8768 56.404 90.3859 61.5001 90.3859Z" fill="white"/>
<path d="M21.1814 84.2375C13.6524 82.3639 7.23994 80.4822 3.32837 79.2816C9.21624 98.5679 24.4323 113.784 43.7186 119.672L43.6728 119.522C41.7913 113.383 38.1537 100.835 35.5644 87.4374C30.5291 86.4639 25.6335 85.3449 21.1814 84.2375Z" fill="white"/>
<path d="M119.522 79.3274C113.383 81.2091 100.834 84.8468 87.4358 87.4357C84.847 100.834 81.2092 113.382 79.3275 119.522L79.2817 119.672C98.568 113.784 113.784 98.5679 119.672 79.2816L119.522 79.3274Z" fill="white"/>
<path d="M1.32642 69.1624C1.53694 69.1896 1.70855 69.2185 1.76548 69.2313C1.81535 69.2434 1.89348 69.2643 1.9218 69.2718L1.98441 69.2898L2.01812 69.3002L2.05356 69.3112L2.08327 69.3205C2.06659 69.3153 1.72871 69.2307 1.32642 69.1624Z" fill="white"/>
</svg>
