<svg width="150" height="150" viewBox="0 0 150 150" fill="none" xmlns="http://www.w3.org/2000/svg">
<path d="M63.2513 79.2767C63.0562 78.9539 62.7939 78.6242 62.4923 78.3225L60.7289 76.5585C60.6624 76.6238 60.5965 76.6884 60.5316 76.7536C57.5266 79.7583 56.8656 82.1446 58.5665 83.8455C59.7747 85.0541 61.2424 85.0289 62.4926 83.7787C63.6835 82.5884 63.9997 80.7475 63.2633 79.2975L63.2513 79.2767Z" fill="white"/>
<path d="M76.8663 49.2426C74.928 51.1809 75.553 53.8644 77.0327 55.664L83.0213 49.6747C82.4719 49.125 79.5895 46.5187 76.8663 49.2426Z" fill="white"/>
<path d="M148.991 44.3213C147.205 38.7721 143.123 34.2796 137.539 31.3058C132.911 28.3915 126.962 26.7596 120.3 26.7596C118.605 26.7596 116.885 26.8535 115.155 27.0657C115.155 27.0657 113.011 27.3765 111.943 27.5937C111.805 27.6205 111.669 27.6489 111.532 27.6769C111.526 27.6782 111.521 27.6791 111.515 27.6804C108.744 28.2506 105.983 29.0787 103.304 30.1552C102.082 30.646 100.392 31.4347 99.7328 31.7597C99.4793 31.8845 97.8216 32.3561 96.7259 30.3163C96.0576 29.0122 96.8425 27.6473 98.5078 26.7451C103.71 23.927 109.429 21.7677 115.097 21.1572L115.094 20.9362C115.071 18.7719 113.322 17.0233 111.158 17L71.3706 17.1488C70.3001 17.1368 69.27 17.557 68.5131 18.3142L1.16577 85.6612C-0.388591 87.2156 -0.388591 89.7358 1.16577 91.2895L41.3872 131.511C42.9416 133.066 45.4615 133.066 47.0159 131.511L95.8019 82.7252C99.1565 83.6769 102.833 84.1866 106.729 84.1866C111.741 84.1866 116.829 83.3673 121.85 81.7521C131.04 78.795 138.926 73.4747 144.056 66.7711C149.575 59.5579 151.328 51.585 148.991 44.3213ZM106.729 74.7299C105.747 74.7299 104.787 74.6895 103.852 74.6111L113.985 64.1636C114.741 63.4065 115.162 62.3763 115.15 61.3061L115.203 37.109C116.89 36.8824 118.57 36.7619 120.236 36.7619C130.191 36.7619 137.945 40.8661 139.989 47.2176C142.954 56.4347 133.321 68.1272 118.953 72.75C114.87 74.0638 110.757 74.7299 106.729 74.7299ZM53.9703 94.9867C53.8187 98.0368 52.2082 101.117 49.1837 104.142C46.6565 106.669 43.7691 108.302 42.064 108.933C41.7226 109.06 41.3396 108.927 41.1511 108.614L38.786 104.706C38.6697 104.514 38.6445 104.28 38.7173 104.068C38.7898 103.855 38.9531 103.686 39.163 103.604C41.4765 102.715 43.7221 101.286 45.3241 99.6832C47.5533 97.4546 47.9763 95.215 46.4554 93.6943C45.0984 92.3373 43.3505 92.4892 39.5287 94.2961C33.9505 96.9928 29.7713 96.8399 26.7581 93.8277C22.7182 89.7878 23.4136 83.6636 28.4883 78.5885C30.4295 76.648 32.5232 75.1885 34.7115 74.2517C35.0667 74.0998 35.4797 74.2388 35.6704 74.5751L37.8684 78.4524C37.9756 78.6418 37.9964 78.8678 37.9258 79.0737C37.8549 79.2792 37.6995 79.445 37.4987 79.5279C35.6508 80.2933 33.9852 81.4098 32.5478 82.8469C30.1436 85.2511 30.4043 87.225 31.4499 88.2703C32.8835 89.7042 34.7827 89.0662 38.7756 87.2695C44.211 84.7682 48.1863 85.043 51.2802 88.137C53.1419 89.9996 54.0973 92.4319 53.9703 94.9867ZM72.9518 79.7082L69.461 83.1983C69.2019 83.4575 68.7949 83.4943 68.4936 83.2863L67.0842 82.3142L66.9843 82.4144C67.215 84.7578 66.2697 87.1213 64.3222 89.0684C60.8708 92.5192 56.5545 91.8146 54.0743 89.3345C51.7032 86.9637 51.1235 83.9549 52.3989 80.6337C53.4644 77.8588 55.6318 75.3326 57.2628 73.702L57.4025 73.5639L57.1692 73.3306C56.3865 72.5479 54.6884 71.619 52.1118 74.1959C50.8215 75.4861 49.6975 77.2955 49.1042 79.0365C49.032 79.2499 48.8684 79.4198 48.6588 79.5005C48.4489 79.5812 48.214 79.5651 48.0173 79.4554L45.2018 77.8913C44.8783 77.7119 44.7318 77.3248 44.8544 76.9762C45.3499 75.5678 46.6184 72.7676 49.5493 69.837C54.2291 65.1569 59.1305 65.1112 63.7233 69.704L69.3793 75.36C70.3379 76.3186 71.724 77.6542 72.8862 78.5756C73.0558 78.7105 73.1598 78.9104 73.1724 79.1266C73.185 79.3438 73.1046 79.555 72.9518 79.7082ZM80.1893 72.4704L76.2049 76.4545C75.9089 76.7505 75.4282 76.7505 75.1318 76.4545L52.5814 53.9044C52.2851 53.6081 52.2851 53.1274 52.5814 52.8314L56.5655 48.847C56.8618 48.5506 57.3426 48.5506 57.6389 48.847L80.1893 71.397C80.4856 71.6934 80.4856 72.1744 80.1893 72.4704ZM74.271 62.4847C70.0883 58.3021 68.1585 51.2291 73.8051 45.5825C76.2285 43.1591 79.092 42.1173 82.0869 42.5693C84.5267 42.9378 87.0451 44.315 89.1769 46.4475C89.808 47.0786 90.3035 47.6781 90.6077 48.0699C90.8422 48.3722 90.8151 48.8016 90.545 49.0723L80.5266 59.0911C82.5557 60.8213 85.5723 60.2337 88.2123 57.5938C89.6463 56.1598 90.7376 54.7501 91.647 53.1564C91.752 52.9732 91.9285 52.8415 92.1337 52.7935C92.3392 52.7456 92.5558 52.7857 92.731 52.9036L95.6002 54.84C95.912 55.0502 96.0229 55.4575 95.8603 55.7967C94.8566 57.8926 93.259 60.0676 91.2407 62.086C88.5972 64.7294 85.6379 66.1656 82.6821 66.24C79.7098 66.3144 76.8022 65.016 74.271 62.4847Z" fill="white"/>
</svg>
