<svg width="150" height="150" viewBox="0 0 150 150" fill="none" xmlns="http://www.w3.org/2000/svg">
<path d="M97.4751 22.4242C97.1023 21.2755 96.2875 20.3224 95.2123 19.7741C94.1352 19.2253 92.8864 19.1275 91.7371 19.5009L72.6879 25.6912C70.2964 26.4683 68.9868 29.0371 69.7645 31.4285L70.7165 34.3598L22.261 69.9526L3.14683 76.1629C1.99815 76.5363 1.04496 77.3505 0.496721 78.4263C-0.0515154 79.5021 -0.14987 80.7522 0.223513 81.9009L11.8373 117.638C12.4626 119.562 14.2476 120.785 16.1667 120.785C16.6336 120.785 17.1077 120.713 17.5752 120.561L36.6864 114.351L46.5055 114.402C48.4774 123.713 56.7586 130.722 66.6475 130.722C76.4612 130.722 84.6877 123.818 86.7404 114.614L96.8109 114.667L97.7628 117.599C98.1356 118.747 98.9498 119.701 100.026 120.249C100.672 120.578 101.381 120.745 102.093 120.745C102.567 120.745 103.042 120.671 103.5 120.522L122.55 114.332C124.942 113.555 126.251 110.987 125.474 108.595L97.4751 22.4242ZM19.0906 110.492L10.2921 83.4163L21.4414 79.7935L30.2387 106.87L19.0906 110.492ZM66.6469 121.615C61.8433 121.615 57.7258 118.648 56.0143 114.453L77.2383 114.564C75.5001 118.702 71.4086 121.615 66.6469 121.615ZM39.2898 105.257L34.5007 90.5179L29.7117 75.7786L73.6793 43.4831L87.163 84.9796L93.845 105.545L39.2898 105.257ZM105.016 110.454L104.457 108.734C104.456 108.731 104.456 108.727 104.455 108.724L92.4244 71.6993L79.8325 32.9445L90.2211 29.5683L115.405 107.077L105.016 110.454Z" fill="white"/>
<path d="M112.809 44.5588C113.472 44.8964 114.177 45.0561 114.873 45.0561C116.53 45.0561 118.129 44.1478 118.933 42.5693L127.106 26.535C128.248 24.2947 127.358 21.5524 125.117 20.4103C122.877 19.2689 120.135 20.1584 118.993 22.3993L110.82 38.4335C109.678 40.6744 110.568 43.4168 112.809 44.5588Z" fill="white"/>
<path d="M147.032 87.8586L130.995 79.6897C128.754 78.5489 126.012 79.4396 124.871 81.6805C123.729 83.9214 124.621 86.6632 126.861 87.8046L142.898 95.9735C143.56 96.3104 144.266 96.4701 144.961 96.4701C146.618 96.4701 148.218 95.5612 149.022 93.9827C150.164 91.7424 149.273 89.0006 147.032 87.8586Z" fill="white"/>
<path d="M124.001 61.4437C124.626 63.3677 126.411 64.5911 128.33 64.5911C128.797 64.5911 129.271 64.5188 129.739 64.367L146.853 58.8058C149.243 58.0286 150.553 55.4599 149.775 53.0678C148.998 50.6757 146.429 49.3692 144.037 50.1445L126.924 55.7058C124.533 56.4835 123.224 59.0523 124.001 61.4437Z" fill="white"/>
</svg>
